<?xml version="1.0" standalone="no"?>
<!DOCTYPE svg PUBLIC "-//W3C//DTD SVG 20010904//EN"
 "http://www.w3.org/TR/2001/REC-SVG-20010904/DTD/svg10.dtd">
<svg version="1.0" xmlns="http://www.w3.org/2000/svg"
 width="592.000000pt" height="592.000000pt" viewBox="0 0 592.000000 592.000000"
 preserveAspectRatio="xMidYMid meet">
<metadata>
Created by potrace 1.14, written by Peter Selinger 2001-2017
</metadata>
<g transform="translate(0.000000,592.000000) scale(0.100000,-0.100000)"
fill="#000000" stroke="none">
<path d="M2465 4785 c-414 -67 -679 -301 -828 -731 -74 -213 -107 -415 -113
-684 l-5 -195 -46 -22 c-117 -57 -149 -138 -97 -247 20 -41 37 -50 66 -35 17
9 20 17 14 55 -7 56 6 89 43 109 40 20 50 19 56 -8 4 -16 -5 -41 -29 -81 -41
-68 -51 -119 -43 -228 13 -197 168 -367 340 -374 l60 -3 39 -72 c21 -40 82
-137 134 -217 97 -148 133 -214 173 -314 26 -66 40 -81 61 -68 11 7 15 28 15
77 -1 55 -7 80 -32 134 -34 69 -207 318 -293 420 -27 34 -50 69 -50 79 0 24
-9 29 -81 46 -136 32 -224 107 -259 222 -38 122 -19 243 46 289 124 87 253 89
349 5 28 -25 43 -30 116 -35 114 -8 115 -7 111 133 l-3 110 29 0 c16 0 35 -7
42 -15 6 -8 37 -24 68 -35 72 -27 79 -34 94 -82 6 -22 21 -47 33 -56 15 -13
24 -37 32 -91 30 -195 180 -342 381 -373 145 -23 301 44 383 162 41 59 80 165
99 270 10 52 20 73 49 103 20 21 48 45 63 53 35 18 128 18 154 -1 19 -13 21
-22 17 -82 -5 -63 6 -153 23 -196 6 -17 4 -17 -27 2 -37 23 -94 28 -105 10 -4
-7 13 -30 39 -54 69 -63 85 -120 46 -169 -36 -45 -111 -34 -197 31 -38 29 -72
27 -88 -5 -18 -36 -7 -56 50 -91 144 -87 268 -63 321 61 8 21 15 52 15 69 l0
32 37 -38 c73 -75 182 -105 302 -81 l44 8 -6 -153 c-4 -120 -10 -170 -27 -224
-55 -176 -184 -344 -351 -458 -140 -94 -264 -137 -462 -159 -172 -18 -385 11
-535 73 -29 12 -55 19 -59 15 -12 -12 78 -93 132 -120 73 -35 150 -54 272 -66
256 -24 534 44 711 174 33 25 82 56 109 70 119 60 256 265 304 456 20 77 21
103 17 270 l-6 185 35 47 c19 26 45 74 58 107 26 64 55 206 55 275 0 22 7 49
15 60 9 11 12 30 8 47 -5 24 1 35 31 63 38 36 49 83 24 104 -24 19 -103 35
-208 41 l-105 6 -13 75 c-64 379 -126 606 -193 711 -58 90 -255 282 -363 353
-167 110 -369 193 -571 236 -134 28 -394 35 -520 15z m-485 -609 c47 -8 182
-28 300 -43 l215 -27 698 -1 697 0 5 -35 c3 -19 30 -163 60 -320 31 -157 56
-303 58 -325 2 -38 1 -39 -36 -46 -25 -4 -55 0 -90 12 -94 33 -207 17 -257
-36 -34 -36 -18 -48 54 -40 l61 7 -50 -34 c-29 -19 -59 -50 -73 -76 l-23 -42
-94 0 -93 0 -20 34 c-28 47 -93 82 -206 111 -79 20 -101 30 -125 57 -26 29
-34 32 -82 31 -30 0 -79 -10 -109 -21 -38 -14 -102 -24 -205 -31 -144 -11
-291 -38 -338 -62 -12 -6 -31 -20 -43 -30 -15 -14 -29 -18 -51 -13 l-30 6 -7
101 c-4 56 -10 119 -13 140 -5 31 -3 37 12 37 10 0 41 17 69 38 28 20 70 50
93 65 23 15 50 38 59 52 15 23 14 31 -22 142 -20 65 -45 136 -55 159 l-17 41
-198 67 c-167 57 -317 118 -249 102 11 -3 58 -12 105 -20z m2250 -976 c25 -25
43 -68 36 -87 -9 -22 -46 -15 -55 10 -5 13 -16 29 -25 36 -19 16 -20 33 -4 49
17 17 25 15 48 -8z m-1070 -40 c39 -20 60 -45 60 -73 0 -26 -29 -27 -52 -2
-13 13 -35 29 -50 34 -26 10 -37 38 -21 54 10 11 21 8 63 -13z"/>
<path d="M1701 2827 c-12 -16 -5 -27 18 -27 9 0 27 -9 39 -18 l24 -18 -27 -18
c-30 -20 -31 -52 -2 -70 13 -8 24 -7 48 7 17 9 34 15 38 13 4 -3 13 -24 20
-48 7 -24 17 -53 22 -65 18 -47 86 -14 74 36 -19 78 -102 174 -179 206 -44 19
-60 19 -75 2z"/>
<path d="M3227 2414 c-3 -4 3 -18 13 -33 11 -14 27 -56 36 -92 19 -80 7 -162
-32 -208 -13 -16 -24 -39 -24 -50 0 -23 41 -71 60 -71 39 0 81 59 94 131 l6
36 58 -20 c98 -33 209 -6 240 60 15 31 15 35 -5 61 -28 38 -56 39 -122 4 -98
-52 -181 -51 -181 1 0 31 -45 120 -80 157 -27 29 -49 37 -63 24z"/>
</g>
</svg>
